<?xml version="1.0" encoding="UTF-8"?>
<svg id="Layer_1" data-name="Layer 1" xmlns="http://www.w3.org/2000/svg" version="1.1" viewBox="0 0 1921.74 813.04">
  <defs>
    <style>
      .cls-1 {
        fill: #ef4540;
      }

      .cls-1, .cls-2 {
        stroke-width: 0px;
      }

      .cls-2 {
        fill: #4c9ad3;
      }

      .cls-3 {
        fill: none;
        stroke: #ef4540;
        stroke-miterlimit: 10;
        stroke-width: 12.91px;
      }
    </style>
  </defs>
  <path class="cls-1" d="M101.11,704.48v-406.79h97.14l145.72,192.47,55.86,85.61h6.68l-4.25-81.97v-196.11h91.07v406.79h-97.14l-149.97-194.29-51.61-76.5h-6.07l3.64,74.68v196.11h-91.07Z"/>
  <path class="cls-2" d="M1411.41,705.72v-406.79h196.11c130.54,0,213.11,75.9,213.11,203.4s-82.57,203.4-213.11,203.4h-196.11ZM1502.48,380.89v242.86h105.04c82.57,0,115.97-23.68,115.97-121.43s-33.39-121.43-115.97-121.43h-105.04Z"/>
  <path class="cls-1" d="M651.79,623.09"/>
  <path class="cls-1" d="M866.56,632.76l30.53,71.72h104.43l-179.11-406.79h-129.93l-177.9,406.79h102l30.9-71.46,109.82-51.3,109.26,51.04ZM753.81,380.87h6.68l24.89,63.14,35.96,83.33-63.92-30.59v-.1l-.11.05-.11-.05v.1l-64.3,30.77,36.01-83.51,24.89-63.14Z"/>
  <circle class="cls-3" cx="757.12" cy="224.99" r="41.31"/>
  <path class="cls-1" d="M850.1,224.99c0,11.19-4.95,21.81-13.56,29.13-3.34,2.84-3.75,7.85-.91,11.2,1.57,1.85,3.81,2.8,6.06,2.8,1.81,0,3.64-.62,5.14-1.89,12.17-10.34,19.16-25.37,19.16-41.24s-7.04-31.07-19.32-41.22c-3.38-2.79-8.39-2.33-11.18,1.06-2.79,3.38-2.32,8.39,1.06,11.18,8.62,7.12,13.56,17.68,13.56,28.98Z"/>
  <path class="cls-1" d="M870.49,294.43c-3.36,2.82-3.81,7.83-.99,11.19,1.57,1.88,3.82,2.84,6.09,2.84,1.8,0,3.61-.61,5.1-1.85,24.16-20.24,38.02-49.99,38.02-81.62s-13.86-61.29-38.02-81.54c-3.37-2.82-8.37-2.37-11.19.99-2.82,3.36-2.37,8.37.99,11.19,20.55,17.22,32.34,42.5,32.34,69.36s-11.79,52.23-32.34,69.44Z"/>
  <path class="cls-1" d="M955.49,224.99c0,42.46-18.59,82.45-51.02,109.72-3.36,2.83-3.79,7.84-.97,11.19,1.57,1.87,3.82,2.83,6.08,2.83,1.8,0,3.62-.61,5.11-1.86,36.02-30.29,56.68-74.71,56.68-121.88s-20.66-91.59-56.68-121.88c-3.36-2.83-8.37-2.39-11.19.97-2.82,3.35-2.39,8.36.97,11.19,32.42,27.26,51.02,67.25,51.02,109.72Z"/>
  <path class="cls-1" d="M666.01,224.99c0,11.19,4.95,21.81,13.56,29.13,3.34,2.84,3.75,7.85.91,11.2-1.57,1.85-3.81,2.8-6.06,2.8-1.81,0-3.64-.62-5.14-1.89-12.17-10.34-19.16-25.37-19.16-41.24s7.04-31.07,19.32-41.22c3.38-2.79,8.39-2.33,11.18,1.06,2.79,3.38,2.32,8.39-1.06,11.18-8.62,7.12-13.56,17.68-13.56,28.98Z"/>
  <path class="cls-1" d="M645.62,294.43c3.36,2.82,3.81,7.83.99,11.19-1.57,1.88-3.82,2.84-6.09,2.84-1.8,0-3.61-.61-5.1-1.85-24.16-20.24-38.02-49.99-38.02-81.62s13.86-61.29,38.02-81.54c3.37-2.82,8.37-2.37,11.19.99,2.82,3.36,2.37,8.37-.99,11.19-20.55,17.22-32.34,42.5-32.34,69.36s11.79,52.23,32.34,69.44Z"/>
  <path class="cls-1" d="M560.62,224.99c0,42.46,18.59,82.45,51.02,109.72,3.36,2.83,3.79,7.84.97,11.19-1.57,1.87-3.82,2.83-6.08,2.83-1.8,0-3.62-.61-5.11-1.86-36.02-30.29-56.68-74.71-56.68-121.88s20.66-91.59,56.68-121.88c3.36-2.83,8.37-2.39,11.19.97,2.82,3.35,2.39,8.36-.97,11.19-32.42,27.26-51.02,67.25-51.02,109.72Z"/>
  <path class="cls-2" d="M1337.86,663.35c-24.53,23.3-71.75,48.45-149.63,48.45-69.3,0-109.77-17.78-134.92-34.34-55.81-37.41-74.82-101.8-74.82-166.81,0-111,51.51-160.06,91.99-185.2,21.46-12.88,61.32-33.73,123.88-33.73,5.52,0,22.08,0,39.25,2.45,20.85,2.45,88.92,12.26,128.17,69.91,6.75,10.42,9.81,15.94,17.17,36.79l-104.25,9.81c-2.45-4.29-7.36-11.65-15.94-19.62-25.76-25.14-60.71-25.14-71.75-25.14-46.61,0-84.63,22.69-100.57,68.07-7.36,20.24-7.97,42.93-8.59,49.06,10.42-9.2,14.11-12.88,20.24-17.17,19.01-13.49,55.19-31.89,112.84-31.89,84.63,0,128.78,34.34,149.64,65.01,7.36,11.04,20.24,33.73,20.24,67.46-.61,36.79-16.56,72.36-42.93,96.89ZM1274.7,551.12c-15.94-52.13-99.35-45.99-101.19-45.99-17.17.61-26.98,3.68-33.73,5.52-9.2,3.07-53.35,16.56-53.35,58.26,0,6.75.61,19.62,11.65,34.34,19.62,26.98,53.35,31.28,84.63,31.28,6.75,0,53.97,1.23,79.11-25.14,5.52-6.13,15.94-18.4,15.94-39.86,0-3.68-.61-9.81-3.07-18.4Z"/>
</svg>